<svg xmlns="http://www.w3.org/2000/svg" viewBox="0 0 200 70.4476"><defs><style>.cls-1{fill:#ff1e56;}</style></defs><title>PiattoAsset 4</title><g id="Layer_2" data-name="Layer 2"><g id="Layer_1-2" data-name="Layer 1"><path class="cls-1" d="M40.66,0C23.6134,0,0,10.3128,0,29.676c0,8.7654,4.797,14.9982,12.2214,15.8789l1.52.18,1.5659-7.83-1.8785-.1312c-3.8418-.2682-5.6316-4.9907-5.6316-8.0979,0-8.1172,6.1186-13.296,11.2519-16.2114a40.5862,40.5862,0,0,1,5.9193-2.7264L12.3916,70.4476h7.9845L24.2548,51.83a43.9331,43.9331,0,0,0,4.973.2367,47.57,47.57,0,0,0,26.0611-7.6531c8.4505-5.7109,12.9175-13.5587,12.9175-22.6953C68.2064,6.7155,54.3712,0,40.66,0ZM49.955,38.712A41.4791,41.4791,0,0,1,29.2278,44.27c-1.3646,0-2.4393-.04-3.2942-.1271l7.1286-33.9443H26.5057A46.1621,46.1621,0,0,1,40.66,7.7968a26.499,26.499,0,0,1,13.4935,3.4679c4.1514,2.547,6.2564,6.0642,6.2564,10.4537C60.41,30.5007,54.7242,35.8071,49.955,38.712Z"/><path class="cls-1" d="M77.194,18.8924a4.3127,4.3127,0,0,0,4.4589-4.4589,4.4587,4.4587,0,1,0-8.9174,0A4.3124,4.3124,0,0,0,77.194,18.8924Z"/><path class="cls-1" d="M196.5051,29.9063a12.8715,12.8715,0,0,0-10.3785-4.6892c-6.7528,0-12.4093,3.6454-16.3579,10.5423a39.2349,39.2349,0,0,0-4.8,18.349q0,.4486.0171.8879l-.8015,2.3245c-1.5934,3.6855-3.6761,5.33-6.7477,5.33-1.474,0-3.9469-.4545-3.9469-3.4988a11.3207,11.3207,0,0,1,.1157-1.45c.1433-.4721.2668-.9218.3875-1.3647l.4287-1.5735-.2382-.069,6.2711-28.9662h9.0621V17.9319h-7.4509L165.8761.2239h-7.9845l-3.8107,17.708H143.35L147.16.2239h-7.9845l-3.8107,17.708H126.641v7.7968h7.114L127.4067,55.182c-1.7648,5.2876-3.9826,7.4688-7.5128,7.4688a3.82,3.82,0,0,1-3.1146-1.1682,5.452,5.452,0,0,1-.6453-4.448l6.82-31.7052H114.949l-.5634,2.8183a14.01,14.01,0,0,0-8.3893-2.7063c-6.7043,0-12.7424,3.7966-17.0022,10.6907a38.6115,38.6115,0,0,0-5.49,18.5563l-.8994,2.6083a13.9159,13.9159,0,0,1-2.35,3.8469,6.5747,6.5747,0,0,1-4.2938,1.5072c-3.5975,0-4.0589-1.87-4.0589-3.4988,0-.6344.5763-3.5414,6.6872-31.8158l.4339-2.0068h-7.979l-.287,1.2993C64.1054,56.73,64.1054,57.8521,64.1054,59.152c0,6.6507,4.8753,11.2956,11.8557,11.2956a13.8734,13.8734,0,0,0,6.9768-1.67l.04-.0233a15.3427,15.3427,0,0,0,3.9077-3.434c.2481.2976.5057.588.78.8652A14.6686,14.6686,0,0,0,98.2344,70.35c.2547,0,.5123-.0053.74-.0154A16.0824,16.0824,0,0,0,109.98,65.6472c2.1063,3.1513,5.5274,4.8,10.0267,4.8a13.3422,13.3422,0,0,0,9.5715-3.8749,11.7453,11.7453,0,0,0,9.1429,3.8749,13.5284,13.5284,0,0,0,9.73-3.6976,11.7969,11.7969,0,0,0,8.9854,3.6976,13.4546,13.4546,0,0,0,11.0873-5.1908,13.9812,13.9812,0,0,0,11.2145,5.0785h.158a14.8011,14.8011,0,0,0,8.8549-2.3189,25.7571,25.7571,0,0,0,3.9622-3.2467,12.8517,12.8517,0,0,0,1.55-2.1852c.1075-.177.2165-.3565.3155-.515C198.0241,56.7449,200,49.0638,200,40.9955A17.3357,17.3357,0,0,0,196.5051,29.9063ZM108.909,53.7534c-.0323.0652-.0666.1366-.1048.216a22.1625,22.1625,0,0,1-2.8477,4.5706c-2.2112,2.6535-4.5731,3.9988-7.0208,3.9988-5.9738,0-7.4849-3.5519-7.6324-6.7573l.3229-.9956L91.3,54.6915a30.8128,30.8128,0,0,1,3.9129-13.9854c1.9756-3.4069,5.45-7.4679,10.783-7.4679a5.9822,5.9822,0,0,1,6.0743,5.6882Zm29.8116,8.8974c-1.474,0-3.9466-.4545-3.9466-3.4988a15.3609,15.3609,0,0,1,.2074-2.12l.0165-.1165v-.0071c.0555-.1855.1117-.37.1647-.5592l.444-1.5822-.1457-.0422,6.2776-28.9964h10.7322l-6.41,29.7364c-.0184.0925-.0314.1857-.0485.2784l-.544,1.5773C143.8752,61.0063,141.7925,62.6508,138.7206,62.6508Zm41.0175-.112c-4.441,0-6.4082-3.3813-6.8646-6.8072l.2639-.9677-.3586-.1038c-.0082-.1849-.0136-.3692-.0136-.5517A33.204,33.204,0,0,1,174.4984,43.48a33.3566,33.3566,0,0,0,6.1235,19.0231Q180.1719,62.5388,179.7381,62.5388Zm7.746-3.9456a24.6264,24.6264,0,0,1-5.1921-15.58,17.4922,17.4922,0,0,1,1.0993-6.2951,10.8309,10.8309,0,0,1,2.6755-3.7044l.06,0c5.287,0,6.0766,5.0009,6.0766,7.9819C192.2032,50.1315,189.45,55.7486,187.4841,58.5932Z"/></g></g></svg>