<svg width="27" height="26" viewBox="0 0 27 26" fill="none" xmlns="http://www.w3.org/2000/svg">
<path d="M12.825 0.268531C13.1862 -0.0895105 13.8183 -0.0895105 14.1796 0.268531C18.3334 4.38601 22.5775 8.59301 26.7314 12.7105C27.5441 13.6056 26.2799 14.8587 25.4672 13.9636L24.2933 12.8V24.7049C24.2933 25.242 23.8418 25.6 23.3903 25.6H16.7983C16.2565 25.6 15.8953 25.242 15.8953 24.7049V18.9762C15.8953 16.1119 11.1093 16.1119 11.1093 18.9762V24.7049C11.1093 25.242 10.7481 25.6 10.2063 25.6H3.70463C3.16283 25.6 2.80162 25.242 2.80162 24.7049V12.8L1.53741 13.9636C0.7247 14.8587 -0.539514 13.6056 0.273195 12.7105C4.51734 8.59301 8.67119 4.38601 12.825 0.268531ZM4.60764 11.0098V23.8098H9.3033V18.9762C9.3033 13.7846 17.7013 13.7846 17.7013 18.9762V23.8098H22.4872V11.0098L13.5474 2.14825L4.60764 11.0098Z" fill="black"/>
</svg>
