<svg width="20" height="25" viewBox="0 0 20 25" fill="none" xmlns="http://www.w3.org/2000/svg">
<g clip-path="url(#clip0)">
<path d="M1.29548 0.994673C1.16024 0.994673 1.02632 1.02131 0.901372 1.07307C0.776424 1.12482 0.662893 1.20068 0.567263 1.29631C0.374127 1.48945 0.265625 1.75139 0.265625 2.02453V18.5447C0.284355 18.8057 0.401271 19.05 0.592841 19.2283C0.784412 19.4066 1.03642 19.5058 1.29813 19.5058C1.55985 19.5058 1.81186 19.4066 2.00343 19.2283C2.195 19.05 2.31191 18.8057 2.33064 18.5447V2.02453C2.33065 1.88884 2.30383 1.75448 2.25175 1.62919C2.19966 1.50389 2.12333 1.39013 2.02713 1.29443C1.93094 1.19873 1.81678 1.12298 1.69122 1.07154C1.56566 1.0201 1.43117 0.993974 1.29548 0.994673Z" fill="black"/>
<path d="M14.2269 1.6264C13.9624 1.56016 13.6827 1.59817 13.4455 1.73257C13.2083 1.86698 13.0319 2.08746 12.9528 2.34836L8.56268 18.2474C8.52637 18.3778 8.5161 18.514 8.53246 18.6483C8.54883 18.7827 8.59151 18.9125 8.65806 19.0303C8.72462 19.1481 8.81375 19.2517 8.92035 19.3351C9.02695 19.4184 9.14894 19.48 9.27934 19.5161C9.3692 19.5412 9.4621 19.5537 9.55538 19.5533C9.78118 19.5531 10.0007 19.4787 10.18 19.3415C10.3594 19.2044 10.4887 19.012 10.5481 18.7942L14.9435 2.86859C15.009 2.609 14.9707 2.33414 14.837 2.10225C14.7032 1.87037 14.4844 1.69969 14.2269 1.6264Z" fill="black"/>
<path d="M5.42536 0.994673C5.15223 0.994673 4.89028 1.10318 4.69715 1.29631C4.50401 1.48945 4.39551 1.75139 4.39551 2.02453V18.5447C4.41424 18.8057 4.53115 19.05 4.72272 19.2283C4.91429 19.4066 5.1663 19.5058 5.42802 19.5058C5.68974 19.5058 5.94174 19.4066 6.13331 19.2283C6.32488 19.05 6.4418 18.8057 6.46053 18.5447V2.02453C6.46053 1.88884 6.43372 1.75448 6.38163 1.62919C6.32954 1.50389 6.25321 1.39013 6.15701 1.29443C6.06082 1.19873 5.94666 1.12298 5.8211 1.07154C5.69554 1.0201 5.56105 0.993974 5.42536 0.994673Z" fill="black"/>
<path d="M17.8156 0.994664C17.6777 0.990397 17.5404 1.01388 17.4117 1.06372C17.2831 1.11356 17.1657 1.18875 17.0667 1.2848C16.9677 1.38086 16.889 1.49584 16.8352 1.62291C16.7815 1.74998 16.7538 1.88655 16.7539 2.02452V18.5447C16.7726 18.8057 16.8896 19.05 17.0811 19.2283C17.2727 19.4066 17.5247 19.5057 17.7864 19.5057C18.0481 19.5057 18.3001 19.4066 18.4917 19.2283C18.6833 19.05 18.8002 18.8057 18.8189 18.5447V2.02452C18.819 1.75592 18.7142 1.49792 18.5267 1.30553C18.3393 1.11314 18.0841 1.00159 17.8156 0.994664Z" fill="black"/>
</g>
<defs>
<clipPath id="clip0">
<rect width="19.1107" height="23.8884" fill="white" transform="translate(0 0.729248)"/>
</clipPath>
</defs>
</svg>
