<svg width="15" height="16" viewBox="0 0 15 16" fill="none" xmlns="http://www.w3.org/2000/svg">
<g opacity="0.6">
<path d="M9.82405 3.23414C9.99565 3.41276 10.1552 3.60388 10.3045 3.80215C10.2599 3.74142 10.2153 3.68248 10.1707 3.62175C10.4624 4.01828 10.7044 4.45055 10.8931 4.90961C10.8639 4.83816 10.8348 4.76671 10.8073 4.69705C11.0012 5.17754 11.1316 5.68125 11.1986 6.19746C11.1883 6.11887 11.178 6.03849 11.1677 5.9599C11.2312 6.47254 11.2312 6.99054 11.1677 7.50319C11.178 7.42459 11.1883 7.34421 11.1986 7.26562C11.1316 7.78184 11.0012 8.28555 10.8073 8.76604C10.8365 8.69459 10.8657 8.62314 10.8931 8.55348C10.7061 9.01254 10.4641 9.4448 10.1707 9.84134C10.2153 9.78061 10.2599 9.72166 10.3045 9.66093C10.0077 10.061 9.66103 10.4201 9.27836 10.7291C9.33671 10.6826 9.39333 10.6362 9.45168 10.5898C9.07073 10.8934 8.65545 11.1453 8.21444 11.3418C8.28308 11.3114 8.35172 11.281 8.41865 11.2524C7.95704 11.4543 7.47313 11.59 6.97721 11.6597C7.05272 11.649 7.12994 11.6383 7.20544 11.6276C6.71295 11.6936 6.21531 11.6936 5.72282 11.6276C5.79832 11.6383 5.87554 11.649 5.95105 11.6597C5.45512 11.59 4.97121 11.4543 4.50961 11.2524C4.57825 11.2828 4.64689 11.3132 4.71382 11.3418C4.2728 11.1471 3.85753 10.8952 3.47658 10.5898C3.53493 10.6362 3.59156 10.6826 3.6499 10.7291C3.26552 10.4201 2.9206 10.0593 2.62373 9.66093C2.66835 9.72166 2.71297 9.78061 2.75758 9.84134C2.46586 9.4448 2.22391 9.01254 2.03515 8.55348C2.06432 8.62493 2.09349 8.69638 2.12095 8.76604C1.92704 8.28555 1.79662 7.78184 1.7297 7.26562C1.74 7.34421 1.75029 7.42459 1.76059 7.50319C1.6971 6.99054 1.6971 6.47254 1.76059 5.9599C1.75029 6.03849 1.74 6.11887 1.7297 6.19746C1.79662 5.68125 1.92704 5.17754 2.12095 4.69705C2.09178 4.76849 2.0626 4.83994 2.03515 4.90961C2.22219 4.45055 2.46415 4.01828 2.75758 3.62175C2.71297 3.68248 2.66835 3.74142 2.62373 3.80215C2.9206 3.40204 3.26723 3.04301 3.6499 2.734C3.59156 2.78044 3.53493 2.82688 3.47658 2.87332C3.85753 2.56967 4.2728 2.31781 4.71382 2.12133C4.64518 2.15169 4.57654 2.18206 4.50961 2.21064C4.97121 2.0088 5.45512 1.87304 5.95105 1.80338C5.87554 1.8141 5.79832 1.82482 5.72282 1.83553C6.21531 1.76944 6.71295 1.76944 7.20544 1.83553C7.12994 1.82482 7.05272 1.8141 6.97721 1.80338C7.47313 1.87304 7.95704 2.0088 8.41865 2.21064C8.35001 2.18027 8.28137 2.14991 8.21444 2.12133C8.65545 2.31602 9.07073 2.56788 9.45168 2.87332C9.39333 2.82688 9.33671 2.78044 9.27836 2.734C9.46884 2.8894 9.65245 3.05552 9.82405 3.23414C9.9802 3.39668 10.2101 3.49492 10.4315 3.49492C10.6426 3.49492 10.8931 3.39847 11.039 3.23414C11.1883 3.06445 11.2998 2.84117 11.2895 2.60182C11.2792 2.36604 11.202 2.14098 11.039 1.9695C10.1175 1.01745 8.90599 0.335114 7.62071 0.111837C7.27408 0.0511061 6.9223 0.00823709 6.57052 0.00109224C6.24791 -0.00605262 5.92874 0.0225267 5.60956 0.0671821C5.28867 0.111837 4.97293 0.170782 4.66234 0.265452C4.32428 0.369052 3.99481 0.50659 3.67392 0.660205C3.0819 0.945999 2.53622 1.34611 2.05746 1.80517C1.5684 2.27494 1.14455 2.8376 0.820224 3.44312C0.511345 4.02186 0.274538 4.65775 0.145838 5.30793C0.0171385 5.95811 -0.0360573 6.63151 0.0257184 7.2942C0.0874942 7.96403 0.221342 8.61778 0.470161 9.23939C0.607441 9.58234 0.755016 9.91815 0.943775 10.2343C1.13425 10.5576 1.35733 10.8631 1.59414 11.1524C2.02657 11.6776 2.55338 12.133 3.11966 12.4921C3.66363 12.8368 4.2728 13.1012 4.89228 13.2601C6.12951 13.5781 7.48 13.5245 8.67605 13.0547C9.01066 12.9226 9.34185 12.7725 9.65416 12.5885C9.96819 12.4046 10.2565 12.1831 10.5396 11.9509C11.0647 11.5186 11.5126 10.9863 11.8815 10.4076C12.5902 9.29654 12.9592 7.92831 12.93 6.59579C12.9008 5.25792 12.4907 3.90575 11.7271 2.82331C11.5143 2.52322 11.2895 2.23564 11.0373 1.97129C10.8828 1.80874 10.6494 1.7105 10.4298 1.7105C10.2187 1.7105 9.96819 1.80695 9.82233 1.97129C9.67304 2.14098 9.5615 2.36425 9.5718 2.6036C9.58209 2.83938 9.65931 3.06266 9.82405 3.23414Z" fill="#181818"/>
<path d="M9.82395 11.49C10.2409 11.9241 10.6596 12.3599 11.0766 12.794C11.7424 13.487 12.4082 14.1801 13.074 14.8731C13.2268 15.0321 13.3812 15.1929 13.5339 15.3518C13.6901 15.5144 13.92 15.6126 14.1414 15.6126C14.3525 15.6126 14.603 15.5162 14.7489 15.3518C14.8981 15.1821 15.0097 14.9589 14.9994 14.7195C14.9891 14.4819 14.9119 14.2587 14.7489 14.0872C14.3319 13.6531 13.9132 13.2173 13.4962 12.7832C12.8304 12.0902 12.1646 11.3971 11.4988 10.7041C11.346 10.5451 11.1916 10.3844 11.0389 10.2254C10.8827 10.0628 10.6528 9.9646 10.4314 9.9646C10.2203 9.9646 9.96981 10.0611 9.82395 10.2254C9.67466 10.3951 9.56312 10.6184 9.57341 10.8577C9.58199 11.0953 9.65921 11.3186 9.82395 11.49Z" fill="#181818"/>
</g>
</svg>
