<svg id="Layer_1" enable-background="new 0 0 512.002 512.002" height="512" viewBox="0 0 512.002 512.002" width="512" xmlns="http://www.w3.org/2000/svg"><g><g><path d="m479.951 196.15h2.051c16.542 0 30-13.468 30-30.023s-13.458-30.022-30-30.022h-31.359c12.464-9.208 22.351-19.326 29.308-30.059h2.051c16.542 0 30-13.468 30-30.023s-13.458-30.022-30-30.022h-452.002c-16.542 0-30 13.468-30 30.023s13.458 30.022 30 30.022h2.049c6.956 10.731 16.845 20.85 29.31 30.059h-31.359c-16.542 0-30 13.468-30 30.023s13.458 30.022 30 30.022h2.049c6.956 10.731 16.845 20.85 29.31 30.059h-31.359c-16.542 0-30 13.468-30 30.023s13.458 30.022 30 30.022h2.049c6.956 10.731 16.845 20.85 29.31 30.059h-31.336c-16.554 0-30.023 13.468-30.023 30.023s13.469 30.022 30.023 30.022h2.033c17.501 27.052 52.986 49.627 101.07 64.268v5.364c0 11.034 8.972 20.011 20 20.011h205.75c11.028 0 20-8.977 20-20.011v-5.364c48.095-14.645 83.571-37.214 101.073-64.268h2.031c16.555 0 30.022-13.468 30.022-30.023s-13.468-30.022-30.022-30.022h-31.336c12.464-9.208 22.351-19.326 29.308-30.059h2.051c16.542 0 30-13.468 30-30.023s-13.458-30.022-30-30.022h-31.359c12.463-9.208 22.35-19.326 29.307-30.059zm-459.951-120.127c0-5.526 4.486-10.022 10-10.022h452.002c5.514 0 10 4.496 10 10.023 0 5.526-4.486 10.022-10 10.022h-452.002c-5.514 0-10-4.496-10-10.023zm37.385 30.023h397.232c-10.239 11.036-24.717 21.235-42.773 30.059h-311.686c-18.052-8.822-32.532-19.023-42.773-30.059zm308.79 317.457c-4.316 1.211-7.299 5.146-7.299 9.628v12.869l-205.75-.011v-12.858c0-4.482-2.982-8.417-7.299-9.628-39.27-11.019-70.378-27.746-88.438-47.145h397.222c-18.058 19.4-49.152 36.123-88.436 47.145zm125.827-77.167c0 5.526-4.496 10.022-10.022 10.022h-451.957c-5.527 0-10.023-4.496-10.023-10.023 0-5.526 4.496-10.022 10.023-10.022h451.956c5.527 0 10.023 4.496 10.023 10.023zm-80.157-30.023h-311.687c-18.052-8.822-32.532-19.023-42.772-30.059h397.232c-10.239 11.036-24.717 21.236-42.773 30.059zm80.157-60.081c0 5.526-4.486 10.022-10 10.022h-452.002c-5.514 0-10-4.496-10-10.023 0-5.526 4.486-10.022 10-10.022h452.002c5.514 0 10 4.496 10 10.023zm-80.157-30.023h-311.687c-18.052-8.821-32.532-19.023-42.772-30.059h153.62c5.522 0 10-4.477 10-10s-4.478-10-10-10h-181.006c-5.514 0-10-4.496-10-10.023 0-5.526 4.486-10.022 10-10.022h452.002c5.514 0 10 4.496 10 10.023 0 5.526-4.486 10.022-10 10.022h-180.997c-5.522 0-10 4.477-10 10s4.478 10 10 10h153.613c-10.239 11.036-24.717 21.236-42.773 30.059z"/><path d="m256.009 176.15h-.008c-5.522 0-9.996 4.477-9.996 10s4.481 10 10.004 10 10-4.477 10-10-4.478-10-10-10z"/></g></g></svg>