<svg id="Capa_1" enable-background="new 0 0 512 512" height="512" viewBox="0 0 512 512" width="512" xmlns="http://www.w3.org/2000/svg"><g><g><circle cx="256" cy="256" fill="#f9f6f9" r="171.728"/></g><g><path d="m367.175 125.127c25.475 29.959 40.855 68.768 40.855 111.175 0 94.843-76.885 171.728-171.728 171.728-42.407 0-81.216-15.38-111.175-40.855 31.499 37.044 78.437 60.553 130.873 60.553 94.843 0 171.728-76.885 171.728-171.728 0-52.436-23.509-99.374-60.553-130.873z" fill="#dfdde2"/></g><g><circle cx="256" cy="256" fill="#dfdde2" r="121.22"/></g><g><path d="m467.124 175.187c-20.642 0-37.376-16.734-37.376-37.376v-30.305c0-20.642 16.734-37.376 37.376-37.376 20.642 0 37.376 16.734 37.376 37.376v30.305c0 20.642-16.734 37.376-37.376 37.376z" fill="#dfdde2"/></g><g><path d="m477.226 322.671h-20.203c-5.579 0-10.102 4.523-10.102 10.102v98.996c0 5.579 4.523 10.102 10.102 10.102h20.203c5.579 0 10.102-4.523 10.102-10.102v-98.996c-.001-5.58-4.523-10.102-10.102-10.102z" fill="#eab14d"/></g><g><path d="m7.5 137.811c0 20.642 16.734 37.376 37.376 37.376 20.642 0 37.376-16.734 37.376-37.376z" fill="#dfdde2"/></g><g><path d="m34.774 322.671h20.203c5.579 0 10.102 4.523 10.102 10.102v98.996c0 5.579-4.523 10.102-10.102 10.102h-20.203c-5.579 0-10.102-4.523-10.102-10.102v-98.996c.001-5.58 4.523-10.102 10.102-10.102z" fill="#eab14d"/></g><g><path d="m256 127.28c-25.047 0-49.329 7.201-70.221 20.825-3.47 2.262-4.448 6.909-2.186 10.379 2.262 3.469 6.91 4.449 10.379 2.186 18.449-12.03 39.898-18.389 62.028-18.389 62.705 0 113.72 51.015 113.72 113.72s-51.015 113.719-113.72 113.719-113.72-51.015-113.72-113.72c0-26.878 9.549-52.959 26.89-73.439 2.676-3.161 2.283-7.894-.878-10.57s-7.894-2.283-10.57.878c-19.63 23.185-30.441 52.708-30.441 83.131 0 70.976 57.744 128.72 128.72 128.72s128.719-57.744 128.719-128.72-57.744-128.72-128.72-128.72z"/><path d="m256 76.772c-98.826 0-179.228 80.401-179.228 179.228s80.402 179.228 179.228 179.228 179.228-80.402 179.228-179.228-80.402-179.228-179.228-179.228zm0 343.456c-90.555 0-164.228-73.672-164.228-164.228s73.673-164.228 164.228-164.228 164.228 73.673 164.228 164.228-73.673 164.228-164.228 164.228z"/><path d="m467.124 62.63c-24.745 0-44.876 20.131-44.876 44.876v30.305c0 22.188 16.191 40.656 37.376 44.237v133.123h-2.602c-9.706 0-17.602 7.896-17.602 17.602v98.996c0 9.706 7.896 17.602 17.602 17.602h20.203c9.706 0 17.602-7.896 17.602-17.602v-49.311c0-4.142-3.358-7.5-7.5-7.5s-7.5 3.358-7.5 7.5v49.311c0 1.435-1.167 2.602-2.602 2.602h-20.203c-1.435 0-2.602-1.167-2.602-2.602v-98.996c0-1.435 1.167-2.602 2.602-2.602h20.203c1.435 0 2.602 1.167 2.602 2.602v14.656c0 4.142 3.358 7.5 7.5 7.5s7.5-3.358 7.5-7.5v-14.656c0-9.706-7.896-17.602-17.602-17.602h-2.602v-133.123c21.186-3.581 37.377-22.049 37.377-44.237v-30.305c0-24.745-20.131-44.876-44.876-44.876zm29.876 75.181c0 16.474-13.402 29.876-29.876 29.876s-29.876-13.402-29.876-29.876v-30.305c0-16.474 13.402-29.876 29.876-29.876s29.876 13.402 29.876 29.876z"/><path d="m89.752 137.811v-67.681c0-4.142-3.358-7.5-7.5-7.5s-7.5 3.358-7.5 7.5v60.181h-22.376v-60.181c0-4.142-3.358-7.5-7.5-7.5s-7.5 3.358-7.5 7.5v60.181h-22.376v-60.181c0-4.142-3.358-7.5-7.5-7.5s-7.5 3.358-7.5 7.5v67.681c0 22.188 16.191 40.656 37.376 44.237v133.123h-2.602c-9.706 0-17.602 7.896-17.602 17.602v14.656c0 4.142 3.358 7.5 7.5 7.5s7.5-3.358 7.5-7.5v-14.656c0-1.435 1.167-2.602 2.602-2.602h20.203c1.435 0 2.602 1.167 2.602 2.602v98.996c0 1.435-1.167 2.602-2.602 2.602h-20.203c-1.435 0-2.602-1.167-2.602-2.602v-49.311c0-4.142-3.358-7.5-7.5-7.5s-7.5 3.358-7.5 7.5v49.311c0 9.706 7.896 17.602 17.602 17.602h20.203c9.706 0 17.602-7.896 17.602-17.602v-98.996c0-9.706-7.896-17.602-17.602-17.602h-2.602v-133.123c21.186-3.581 37.377-22.049 37.377-44.237zm-73.798 7.5h57.843c-3.336 12.855-15.037 22.376-28.922 22.376s-25.585-9.521-28.921-22.376z"/></g></g></svg>